<svg xmlns="http://www.w3.org/2000/svg" xmlns:xlink="http://www.w3.org/1999/xlink" width="1114pt" height="3436" viewBox="0 0 1114 2577"><g id="graph0" class="graph" transform="scale(1 1) rotate(0) translate(4 2573)"><title>G</title><polygon fill="#fff" stroke="none" points="-4 4 -4 -2573 1110 -2573 1110 4 -4 4"/><text x="553" y="-2553.8" font-family="Times,serif" font-size="14" text-anchor="middle">CharLstm</text><g id="node1" class="node"><title>n1</title><g id="a_node1"><a xlink:title="[...e/ubuntu/torch/install/share/lua/5.1/crnn/model/LSTM.lua]:51"><ellipse cx="359" cy="-1430" fill="none" stroke="#000" rx="124.176" ry="37.453"/><text x="359" y="-1441.3" font-family="Times,serif" font-size="14" text-anchor="middle">Node1</text><text x="279" y="-1426.3" font-family="Times,serif" font-size="14" text-anchor="start">module = nn.CAddTable</text><text x="359" y="-1411.3" font-family="Times,serif" font-size="14" text-anchor="middle">mapindex = {Node7,Node8}</text></a></g></g><g id="node2" class="node"><title>n2</title><g id="a_node2"><a xlink:title="[[C]]:-1"><ellipse cx="425" cy="-38" fill="none" stroke="#000" rx="208.395" ry="37.453"/><text x="425" y="-49.3" font-family="Times,serif" font-size="14" text-anchor="middle">Node2</text><text x="285.5" y="-34.3" font-family="Times,serif" font-size="14" text-anchor="start">input = {}</text><text x="425" y="-19.3" font-family="Times,serif" font-size="14" text-anchor="middle">mapindex = {Node1,Node3,Node4,Node5,Node6}</text></a></g></g><g id="edge1" class="edge"><title>n1-&gt;n2</title><path fill="none" stroke="#000" d="M356.081,-1392.53C353.129,-1352.46 349,-1286.19 349,-1229 349,-1229 349,-1229 349,-228 349,-175.998 374.073,-121.382 395.416,-84.3093"/><polygon fill="#000" stroke="#000" points="398.679 -85.666 400.744 -75.274 392.649 -82.11 398.679 -85.666"/></g><g id="node10" class="node"><title>n10</title><g id="a_node10"><a xlink:title="[...e/ubuntu/torch/install/share/lua/5.1/crnn/model/LSTM.lua]:56"><ellipse cx="461" cy="-1329" fill="none" stroke="#000" rx="84.219" ry="26.741"/><text x="461" y="-1332.8" font-family="Times,serif" font-size="14" text-anchor="middle">Node10</text><text x="461" y="-1317.8" font-family="Times,serif" font-size="14" text-anchor="middle">module = nn.Tanh</text></a></g></g><g id="edge20" class="edge"><title>n1-&gt;n10</title><path fill="none" stroke="#000" d="M394.961,-1394.1C405.761,-1383.61 417.55,-1372.17 428.138,-1361.9"/><polygon fill="#000" stroke="#000" points="430.867 -1364.12 435.605 -1354.65 425.992 -1359.1 430.867 -1364.12"/></g><g id="node3" class="node"><title>n3</title><g id="a_node3"><a xlink:title="[...e/ubuntu/torch/install/share/lua/5.1/crnn/model/LSTM.lua]:56"><ellipse cx="533" cy="-1228" fill="none" stroke="#000" rx="128.54" ry="37.453"/><text x="533" y="-1239.3" font-family="Times,serif" font-size="14" text-anchor="middle">x (3)</text><text x="450" y="-1224.3" font-family="Times,serif" font-size="14" text-anchor="start">module = nn.CMulTable</text><text x="533" y="-1209.3" font-family="Times,serif" font-size="14" text-anchor="middle">mapindex = {Node9,Node10}</text></a></g></g><g id="edge2" class="edge"><title>n3-&gt;n2</title><path fill="none" stroke="#000" d="M460.395,-1196.96C441.728,-1186.01 423.429,-1171.81 411,-1154 378.131,-1106.89 387,-1084.44 387,-1027 387,-1027 387,-1027 387,-228 387,-178.535 399.665,-123.191 410.372,-85.243"/><polygon fill="#000" stroke="#000" points="413.773 -86.082 413.185 -75.503 407.048 -84.139 413.773 -86.082"/></g><g id="node38" class="node"><title>n38</title><g id="a_node38"><a xlink:title="[...e/ubuntu/torch/install/share/lua/5.1/crnn/model/LSTM.lua]:33"><ellipse cx="559" cy="-1127" fill="#ff0" stroke="#000" rx="138.389" ry="26.741"/><text x="559" y="-1130.8" font-family="Times,serif" font-size="14" text-anchor="middle">i2h[2] (38)</text><text x="559" y="-1115.8" font-family="Times,serif" font-size="14" text-anchor="middle">module = nn.Linear(128 -&gt; 512)</text></a></g></g><g id="edge51" class="edge"><title>n3-&gt;n38</title><path fill="none" stroke="#000" d="M542.608,-1190.42C544.895,-1181.71 547.333,-1172.42 549.61,-1163.75"/><polygon fill="#000" stroke="#000" points="553.037 -1164.49 552.192 -1153.92 546.266 -1162.71 553.037 -1164.49"/></g><g id="node4" class="node"><title>n4</title><g id="a_node4"><a xlink:title="[...e/ubuntu/torch/install/share/lua/5.1/crnn/model/LSTM.lua]:51"><ellipse cx="648" cy="-532" fill="none" stroke="#000" rx="133.465" ry="37.453"/><text x="648" y="-543.3" font-family="Times,serif" font-size="14" text-anchor="middle">Node4</text><text x="561.5" y="-528.3" font-family="Times,serif" font-size="14" text-anchor="start">module = nn.CAddTable</text><text x="648" y="-513.3" font-family="Times,serif" font-size="14" text-anchor="middle">mapindex = {Node11,Node12}</text></a></g></g><g id="edge3" class="edge"><title>n4-&gt;n2</title><path fill="none" stroke="#000" d="M678.852,-495.395C708.554,-457.367 749,-394.016 749,-331 749,-331 749,-331 749,-228 749,-171.859 741.498,-148.684 699,-112 672.544,-89.1637 639.69,-73.3791 606.021,-62.4914"/><polygon fill="#000" stroke="#000" points="606.619 -59.013 596.032 -59.408 604.555 -65.702 606.619 -59.013"/></g><g id="node14" class="node"><title>n14</title><g id="a_node14"><a xlink:title="[...e/ubuntu/torch/install/share/lua/5.1/crnn/model/LSTM.lua]:56"><ellipse cx="607" cy="-431" fill="none" stroke="#000" rx="84.219" ry="26.741"/><text x="607" y="-434.8" font-family="Times,serif" font-size="14" text-anchor="middle">Node14</text><text x="607" y="-419.8" font-family="Times,serif" font-size="14" text-anchor="middle">module = nn.Tanh</text></a></g></g><g id="edge26" class="edge"><title>n4-&gt;n14</title><path fill="none" stroke="#000" d="M632.966,-494.698C629.24,-485.701 625.254,-476.077 621.552,-467.137"/><polygon fill="#000" stroke="#000" points="624.731 -465.667 617.671 -457.767 618.264 -468.345 624.731 -465.667"/></g><g id="node5" class="node"><title>n5</title><g id="a_node5"><a xlink:title="[...e/ubuntu/torch/install/share/lua/5.1/crnn/model/LSTM.lua]:56"><ellipse cx="587" cy="-330" fill="none" stroke="#000" rx="133.465" ry="37.453"/><text x="587" y="-341.3" font-family="Times,serif" font-size="14" text-anchor="middle">top_h (5)</text><text x="500.5" y="-326.3" font-family="Times,serif" font-size="14" text-anchor="start">module = nn.CMulTable</text><text x="587" y="-311.3" font-family="Times,serif" font-size="14" text-anchor="middle">mapindex = {Node13,Node14}</text></a></g></g><g id="edge4" class="edge"><title>n5-&gt;n2</title><path fill="none" stroke="#000" d="M499.669,-301.666C478.171,-290.811 457.476,-275.994 444,-256 409.934,-205.456 411.231,-132.542 416.867,-85.4596"/><polygon fill="#000" stroke="#000" points="420.339 -85.901 418.165 -75.532 413.398 -84.993 420.339 -85.901"/></g><g id="node15" class="node"><title>n15</title><g id="a_node15"><a xlink:title="[...e/ubuntu/torch/install/share/lua/5.1/crnn/model/LSTM.lua]:65"><ellipse cx="587" cy="-229" fill="none" stroke="#000" rx="133.465" ry="26.741"/><text x="587" y="-232.8" font-family="Times,serif" font-size="14" text-anchor="middle">proj (15)</text><text x="587" y="-217.8" font-family="Times,serif" font-size="14" text-anchor="middle">module = nn.Linear(128 -&gt; 65)</text></a></g></g><g id="edge27" class="edge"><title>n5-&gt;n15</title><path fill="none" stroke="#000" d="M587,-292.417C587,-283.802 587,-274.626 587,-266.035"/><polygon fill="#000" stroke="#000" points="590.5 -265.924 587 -255.924 583.5 -265.924 590.5 -265.924"/></g><g id="node6" class="node"><title>n6</title><g id="a_node6"><a xlink:title="[...e/ubuntu/torch/install/share/lua/5.1/crnn/model/LSTM.lua]:66"><ellipse cx="577" cy="-139" fill="none" stroke="#000" rx="113.267" ry="26.741"/><text x="577" y="-142.8" font-family="Times,serif" font-size="14" text-anchor="middle">logsoft (6)</text><text x="577" y="-127.8" font-family="Times,serif" font-size="14" text-anchor="middle">module = nn.LogSoftMax</text></a></g></g><g id="edge5" class="edge"><title>n6-&gt;n2</title><path fill="none" stroke="#000" d="M539.427,-113.528C523.788,-103.342 505.203,-91.2376 487.607,-79.7771"/><polygon fill="#000" stroke="#000" points="489.356 -76.739 479.066 -74.214 485.535 -82.605 489.356 -76.739"/></g><g id="node7" class="node"><title>n7</title><g id="a_node7"><a xlink:title="[...e/ubuntu/torch/install/share/lua/5.1/crnn/model/LSTM.lua]:52"><ellipse cx="133" cy="-1542" fill="none" stroke="#000" rx="133.465" ry="37.453"/><text x="133" y="-1553.3" font-family="Times,serif" font-size="14" text-anchor="middle">Node7</text><text x="46.5" y="-1538.3" font-family="Times,serif" font-size="14" text-anchor="start">module = nn.CMulTable</text><text x="133" y="-1523.3" font-family="Times,serif" font-size="14" text-anchor="middle">mapindex = {Node16,Node17}</text></a></g></g><g id="edge6" class="edge"><title>n7-&gt;n1</title><path fill="none" stroke="#000" d="M198.369,-1509.18C225.777,-1495.84 257.762,-1480.28 285.943,-1466.56"/><polygon fill="#000" stroke="#000" points="287.488 -1469.7 294.948 -1462.18 284.425 -1463.41 287.488 -1469.7"/></g><g id="node8" class="node"><title>n8</title><g id="a_node8"><a xlink:title="[...e/ubuntu/torch/install/share/lua/5.1/crnn/model/LSTM.lua]:53"><ellipse cx="418" cy="-1542" fill="none" stroke="#000" rx="133.465" ry="37.453"/><text x="418" y="-1553.3" font-family="Times,serif" font-size="14" text-anchor="middle">Node8</text><text x="331.5" y="-1538.3" font-family="Times,serif" font-size="14" text-anchor="start">module = nn.CMulTable</text><text x="418" y="-1523.3" font-family="Times,serif" font-size="14" text-anchor="middle">mapindex = {Node18,Node19}</text></a></g></g><g id="edge7" class="edge"><title>n8-&gt;n1</title><path fill="none" stroke="#000" d="M398.518,-1504.68C393.634,-1495.57 388.335,-1485.69 383.25,-1476.21"/><polygon fill="#000" stroke="#000" points="386.273 -1474.44 378.462 -1467.28 380.104 -1477.75 386.273 -1474.44"/></g><g id="node9" class="node"><title>n9</title><g id="a_node9"><a xlink:title="[...e/ubuntu/torch/install/share/lua/5.1/crnn/model/LSTM.lua]:45"><ellipse cx="596" cy="-1430" fill="#ff3030" stroke="#000" rx="93.008" ry="26.741"/><text x="596" y="-1433.8" font-family="Times,serif" font-size="14" text-anchor="middle">out_gate[1] (9)</text><text x="596" y="-1418.8" font-family="Times,serif" font-size="14" text-anchor="middle">module = nn.Narrow</text></a></g></g><g id="edge8" class="edge"><title>n9-&gt;n3</title><path fill="none" stroke="#000" d="M587.764,-1402.85C577.586,-1370.54 560.088,-1315 547.611,-1275.38"/><polygon fill="#000" stroke="#000" points="550.897 -1274.17 544.554 -1265.68 544.22 -1276.27 550.897 -1274.17"/></g><g id="edge9" class="edge"><title>n10-&gt;n3</title><path fill="none" stroke="#000" d="M479.355,-1302.76C485.865,-1293.81 493.398,-1283.45 500.722,-1273.38"/><polygon fill="#000" stroke="#000" points="503.748 -1275.17 506.799 -1265.03 498.087 -1271.05 503.748 -1275.17"/></g><g id="node11" class="node"><title>n11</title><g id="a_node11"><a xlink:title="[...e/ubuntu/torch/install/share/lua/5.1/crnn/model/LSTM.lua]:52"><ellipse cx="834" cy="-644" fill="none" stroke="#000" rx="133.465" ry="37.453"/><text x="834" y="-655.3" font-family="Times,serif" font-size="14" text-anchor="middle">Node11</text><text x="747.5" y="-640.3" font-family="Times,serif" font-size="14" text-anchor="start">module = nn.CMulTable</text><text x="834" y="-625.3" font-family="Times,serif" font-size="14" text-anchor="middle">mapindex = {Node21,Node22}</text></a></g></g><g id="edge10" class="edge"><title>n11-&gt;n4</title><path fill="none" stroke="#000" d="M777.942,-609.847C757.353,-597.671 733.88,-583.789 712.601,-571.205"/><polygon fill="#000" stroke="#000" points="714.333 -568.163 703.944 -566.085 710.769 -574.188 714.333 -568.163"/></g><g id="node12" class="node"><title>n12</title><g id="a_node12"><a xlink:title="[...e/ubuntu/torch/install/share/lua/5.1/crnn/model/LSTM.lua]:53"><ellipse cx="549" cy="-644" fill="none" stroke="#000" rx="133.465" ry="37.453"/><text x="549" y="-655.3" font-family="Times,serif" font-size="14" text-anchor="middle">Node12</text><text x="462.5" y="-640.3" font-family="Times,serif" font-size="14" text-anchor="start">module = nn.CMulTable</text><text x="549" y="-625.3" font-family="Times,serif" font-size="14" text-anchor="middle">mapindex = {Node23,Node24}</text></a></g></g><g id="edge11" class="edge"><title>n12-&gt;n4</title><path fill="none" stroke="#000" d="M580.869,-607.59C589.875,-597.583 599.777,-586.581 609.145,-576.173"/><polygon fill="#000" stroke="#000" points="611.763 -578.495 615.851 -568.721 606.56 -573.813 611.763 -578.495"/></g><g id="node13" class="node"><title>n13</title><g id="a_node13"><a xlink:title="[...e/ubuntu/torch/install/share/lua/5.1/crnn/model/LSTM.lua]:45"><ellipse cx="975" cy="-532" fill="#ff3030" stroke="#000" rx="93.008" ry="26.741"/><text x="975" y="-535.8" font-family="Times,serif" font-size="14" text-anchor="middle">out_gate[2] (13)</text><text x="975" y="-520.8" font-family="Times,serif" font-size="14" text-anchor="middle">module = nn.Narrow</text></a></g></g><g id="edge12" class="edge"><title>n13-&gt;n5</title><path fill="none" stroke="#000" d="M930.869,-508.252C864.505,-474.044 738.315,-408.997 658.644,-367.93"/><polygon fill="#000" stroke="#000" points="660.138 -364.763 649.646 -363.292 656.931 -370.985 660.138 -364.763"/></g><g id="edge13" class="edge"><title>n14-&gt;n5</title><path fill="none" stroke="#000" d="M601.745,-403.989C600.114,-395.914 598.263,-386.753 596.438,-377.716"/><polygon fill="#000" stroke="#000" points="599.811 -376.74 594.4 -367.631 592.95 -378.126 599.811 -376.74"/></g><g id="edge14" class="edge"><title>n15-&gt;n6</title><path fill="none" stroke="#000" d="M584.054,-202.073C583.126,-193.911 582.085,-184.744 581.092,-176.011"/><polygon fill="#000" stroke="#000" points="584.567 -175.587 579.96 -166.046 577.611 -176.377 584.567 -175.587"/></g><g id="node16" class="node"><title>n16</title><g id="a_node16"><a xlink:title="[...e/ubuntu/torch/install/share/lua/5.1/crnn/model/LSTM.lua]:43"><ellipse cx="273" cy="-1643" fill="#9932cc" stroke="#000" rx="93.008" ry="26.741"/><text x="273" y="-1646.8" font-family="Times,serif" font-size="14" text-anchor="middle">forget_gate[1] (16)</text><text x="273" y="-1631.8" font-family="Times,serif" font-size="14" text-anchor="middle">module = nn.Narrow</text></a></g></g><g id="edge15" class="edge"><title>n16-&gt;n7</title><path fill="none" stroke="#000" d="M238.752,-1617.78C224,-1607.35 206.352,-1594.87 189.739,-1583.12"/><polygon fill="#000" stroke="#000" points="191.352 -1579.98 181.166 -1577.06 187.31 -1585.69 191.352 -1579.98"/></g><g id="node17" class="node"><title>n17</title><g id="a_node17"><a xlink:title="[...e/ubuntu/torch/install/share/lua/5.1/crnn/model/LSTM.lua]:11"><ellipse cx="119" cy="-1924" fill="#00f" stroke="#000" rx="94.068" ry="26.741"/><text x="119" y="-1927.8" font-family="Times,serif" font-size="14" text-anchor="middle">prev_c[1] (17)</text><text x="119" y="-1912.8" font-family="Times,serif" font-size="14" text-anchor="middle">module = nn.Identity</text></a></g></g><g id="edge16" class="edge"><title>n17-&gt;n7</title><path fill="none" stroke="#000" d="M119.962,-1896.88C122.298,-1833.49 128.292,-1670.79 131.269,-1589.99"/><polygon fill="#000" stroke="#000" points="134.78 -1589.74 131.651 -1579.62 127.785 -1589.48 134.78 -1589.74"/></g><g id="node18" class="node"><title>n18</title><g id="a_node18"><a xlink:title="[...e/ubuntu/torch/install/share/lua/5.1/crnn/model/LSTM.lua]:41"><ellipse cx="478" cy="-1643" fill="#7fffd4" stroke="#000" rx="93.008" ry="26.741"/><text x="478" y="-1646.8" font-family="Times,serif" font-size="14" text-anchor="middle">in_gate[1] (18)</text><text x="478" y="-1631.8" font-family="Times,serif" font-size="14" text-anchor="middle">module = nn.Narrow</text></a></g></g><g id="edge17" class="edge"><title>n18-&gt;n8</title><path fill="none" stroke="#000" d="M462.392,-1616.25C457.129,-1607.56 451.09,-1597.6 445.197,-1587.88"/><polygon fill="#000" stroke="#000" points="448.029 -1585.8 439.853 -1579.06 442.043 -1589.42 448.029 -1585.8"/></g><g id="node19" class="node"><title>n19</title><g id="a_node19"><a xlink:title="[...e/ubuntu/torch/install/share/lua/5.1/crnn/model/LSTM.lua]:49"><ellipse cx="230" cy="-1733" fill="none" stroke="#000" rx="84.219" ry="26.741"/><text x="230" y="-1736.8" font-family="Times,serif" font-size="14" text-anchor="middle">Node19</text><text x="230" y="-1721.8" font-family="Times,serif" font-size="14" text-anchor="middle">module = nn.Tanh</text></a></g></g><g id="edge18" class="edge"><title>n19-&gt;n8</title><path fill="none" stroke="#000" d="M198.679,-1707.86C187.757,-1697.52 176.791,-1684.49 171,-1670 162.091,-1647.71 156.634,-1635.23 171,-1616 175.638,-1609.79 247.689,-1588.9 312.779,-1571.05"/><polygon fill="#000" stroke="#000" points="314.015 -1574.34 322.738 -1568.33 312.169 -1567.59 314.015 -1574.34"/></g><g id="node20" class="node"><title>n20</title><g id="a_node20"><a xlink:title="[...e/ubuntu/torch/install/share/lua/5.1/crnn/model/LSTM.lua]:40"><ellipse cx="459" cy="-1733" fill="none" stroke="#000" rx="96.311" ry="26.741"/><text x="459" y="-1736.8" font-family="Times,serif" font-size="14" text-anchor="middle">Node20</text><text x="459" y="-1721.8" font-family="Times,serif" font-size="14" text-anchor="middle">module = nn.Sigmoid</text></a></g></g><g id="edge19" class="edge"><title>n20-&gt;n9</title><path fill="none" stroke="#000" d="M524.262,-1713.1C545.509,-1703.63 566.959,-1689.82 580,-1670 620.66,-1608.22 612.547,-1516.93 603.805,-1466.95"/><polygon fill="#000" stroke="#000" points="607.213 -1466.13 601.947 -1456.93 600.33 -1467.41 607.213 -1466.13"/></g><g id="edge28" class="edge"><title>n20-&gt;n16</title><path fill="none" stroke="#000" d="M411.583,-1709.57C386.454,-1697.68 355.426,-1683 329.105,-1670.54"/><polygon fill="#000" stroke="#000" points="330.544 -1667.35 320.008 -1666.24 327.55 -1673.68 330.544 -1667.35"/></g><g id="edge30" class="edge"><title>n20-&gt;n18</title><path fill="none" stroke="#000" d="M464.598,-1706.07C466.36,-1697.91 468.339,-1688.74 470.225,-1680.01"/><polygon fill="#000" stroke="#000" points="473.687 -1680.56 472.376 -1670.05 466.845 -1679.08 473.687 -1680.56"/></g><g id="node21" class="node"><title>n21</title><g id="a_node21"><a xlink:title="[...e/ubuntu/torch/install/share/lua/5.1/crnn/model/LSTM.lua]:43"><ellipse cx="854" cy="-745" fill="#9932cc" stroke="#000" rx="93.008" ry="26.741"/><text x="854" y="-748.8" font-family="Times,serif" font-size="14" text-anchor="middle">forget_gate[2] (21)</text><text x="854" y="-733.8" font-family="Times,serif" font-size="14" text-anchor="middle">module = nn.Narrow</text></a></g></g><g id="edge21" class="edge"><title>n21-&gt;n11</title><path fill="none" stroke="#000" d="M848.745,-717.989C847.114,-709.914 845.263,-700.753 843.438,-691.716"/><polygon fill="#000" stroke="#000" points="846.811 -690.74 841.4 -681.631 839.95 -692.126 846.811 -690.74"/></g><g id="node22" class="node"><title>n22</title><g id="a_node22"><a xlink:title="[...e/ubuntu/torch/install/share/lua/5.1/crnn/model/LSTM.lua]:11"><ellipse cx="1012" cy="-2025" fill="#00f" stroke="#000" rx="94.068" ry="26.741"/><text x="1012" y="-2028.8" font-family="Times,serif" font-size="14" text-anchor="middle">prev_c[2] (22)</text><text x="1012" y="-2013.8" font-family="Times,serif" font-size="14" text-anchor="middle">module = nn.Identity</text></a></g></g><g id="edge22" class="edge"><title>n22-&gt;n11</title><path fill="none" stroke="#000" d="M1016.72,-1997.89C1023.18,-1959.8 1034,-1886.7 1034,-1824 1034,-1824 1034,-1824 1034,-834 1034,-764.165 968.789,-712.459 912.839,-680.948"/><polygon fill="#000" stroke="#000" points="914.4 -677.812 903.95 -676.064 911.029 -683.947 914.4 -677.812"/></g><g id="node23" class="node"><title>n23</title><g id="a_node23"><a xlink:title="[...e/ubuntu/torch/install/share/lua/5.1/crnn/model/LSTM.lua]:41"><ellipse cx="649" cy="-745" fill="#7fffd4" stroke="#000" rx="93.008" ry="26.741"/><text x="649" y="-748.8" font-family="Times,serif" font-size="14" text-anchor="middle">in_gate[2] (23)</text><text x="649" y="-733.8" font-family="Times,serif" font-size="14" text-anchor="middle">module = nn.Narrow</text></a></g></g><g id="edge23" class="edge"><title>n23-&gt;n12</title><path fill="none" stroke="#000" d="M623.766,-719.018C614.176,-709.524 602.959,-698.419 592.174,-687.743"/><polygon fill="#000" stroke="#000" points="594.371 -684.992 584.802 -680.444 589.446 -689.967 594.371 -684.992"/></g><g id="node24" class="node"><title>n24</title><g id="a_node24"><a xlink:title="[...e/ubuntu/torch/install/share/lua/5.1/crnn/model/LSTM.lua]:49"><ellipse cx="536" cy="-835" fill="none" stroke="#000" rx="84.219" ry="26.741"/><text x="536" y="-838.8" font-family="Times,serif" font-size="14" text-anchor="middle">Node24</text><text x="536" y="-823.8" font-family="Times,serif" font-size="14" text-anchor="middle">module = nn.Tanh</text></a></g></g><g id="edge24" class="edge"><title>n24-&gt;n12</title><path fill="none" stroke="#000" d="M537.78,-808.117C539.84,-778.176 543.271,-728.296 545.797,-691.562"/><polygon fill="#000" stroke="#000" points="549.29 -691.794 546.484 -681.578 542.306 -691.314 549.29 -691.794"/></g><g id="node25" class="node"><title>n25</title><g id="a_node25"><a xlink:title="[...e/ubuntu/torch/install/share/lua/5.1/crnn/model/LSTM.lua]:40"><ellipse cx="794" cy="-835" fill="none" stroke="#000" rx="96.311" ry="26.741"/><text x="794" y="-838.8" font-family="Times,serif" font-size="14" text-anchor="middle">Node25</text><text x="794" y="-823.8" font-family="Times,serif" font-size="14" text-anchor="middle">module = nn.Sigmoid</text></a></g></g><g id="edge25" class="edge"><title>n25-&gt;n13</title><path fill="none" stroke="#000" d="M874.197,-819.978C903.786,-810.95 935.145,-796.167 956,-772 1004.85,-715.396 994.501,-620.559 983.979,-569.01"/><polygon fill="#000" stroke="#000" points="987.35 -568.037 981.821 -558.999 980.507 -569.512 987.35 -568.037"/></g><g id="edge33" class="edge"><title>n25-&gt;n21</title><path fill="none" stroke="#000" d="M811.354,-808.547C817.396,-799.686 824.275,-789.596 830.718,-780.146"/><polygon fill="#000" stroke="#000" points="833.735 -781.935 836.477 -771.701 827.951 -777.992 833.735 -781.935"/></g><g id="edge35" class="edge"><title>n25-&gt;n23</title><path fill="none" stroke="#000" d="M754.761,-810.186C736.804,-799.288 715.373,-786.281 696.512,-774.835"/><polygon fill="#000" stroke="#000" points="698.133 -771.724 687.768 -769.528 694.501 -777.709 698.133 -771.724"/></g><g id="node26" class="node"><title>n26</title><g id="a_node26"><a xlink:title="[[C]]:-1-2"><ellipse cx="144" cy="-2328" fill="none" stroke="#000" rx="70.566" ry="37.453"/><text x="144" y="-2339.3" font-family="Times,serif" font-size="14" text-anchor="middle">Node26</text><text x="102" y="-2324.3" font-family="Times,serif" font-size="14" text-anchor="start">input = {}</text><text x="144" y="-2309.3" font-family="Times,serif" font-size="14" text-anchor="middle">selectindex = 2</text></a></g></g><g id="edge29" class="edge"><title>n26-&gt;n17</title><path fill="none" stroke="#000" d="M141.715,-2290.26C136.943,-2213.53 125.971,-2037.09 121.239,-1961"/><polygon fill="#000" stroke="#000" points="124.728 -1960.72 120.614 -1950.95 117.741 -1961.15 124.728 -1960.72"/></g><g id="node27" class="node"><title>n27</title><g id="a_node27"><a xlink:title="[...e/ubuntu/torch/install/share/lua/5.1/crnn/model/LSTM.lua]:48"><ellipse cx="244" cy="-1823" fill="none" stroke="#000" rx="93.008" ry="26.741"/><text x="244" y="-1826.8" font-family="Times,serif" font-size="14" text-anchor="middle">Node27</text><text x="244" y="-1811.8" font-family="Times,serif" font-size="14" text-anchor="middle">module = nn.Narrow</text></a></g></g><g id="edge31" class="edge"><title>n27-&gt;n19</title><path fill="none" stroke="#000" d="M239.875,-1796.07C238.577,-1787.91 237.118,-1778.74 235.729,-1770.01"/><polygon fill="#000" stroke="#000" points="239.171 -1769.37 234.144 -1760.05 232.258 -1770.47 239.171 -1769.37"/></g><g id="node28" class="node"><title>n28</title><g id="a_node28"><a xlink:title="[...e/ubuntu/torch/install/share/lua/5.1/crnn/model/LSTM.lua]:39"><ellipse cx="452" cy="-1823" fill="none" stroke="#000" rx="93.008" ry="26.741"/><text x="452" y="-1826.8" font-family="Times,serif" font-size="14" text-anchor="middle">Node28</text><text x="452" y="-1811.8" font-family="Times,serif" font-size="14" text-anchor="middle">module = nn.Narrow</text></a></g></g><g id="edge32" class="edge"><title>n28-&gt;n20</title><path fill="none" stroke="#000" d="M454.062,-1796.07C454.705,-1788 455.425,-1778.94 456.113,-1770.3"/><polygon fill="#000" stroke="#000" points="459.624 -1770.29 456.928 -1760.05 452.646 -1769.74 459.624 -1770.29"/></g><g id="node29" class="node"><title>n29</title><g id="a_node29"><a xlink:title="[[C]]:-1-4"><ellipse cx="926" cy="-2126" fill="none" stroke="#000" rx="70.566" ry="37.453"/><text x="926" y="-2137.3" font-family="Times,serif" font-size="14" text-anchor="middle">Node29</text><text x="884" y="-2122.3" font-family="Times,serif" font-size="14" text-anchor="start">input = {}</text><text x="926" y="-2107.3" font-family="Times,serif" font-size="14" text-anchor="middle">selectindex = 4</text></a></g></g><g id="edge34" class="edge"><title>n29-&gt;n22</title><path fill="none" stroke="#000" d="M954.876,-2091.76C964.053,-2081.2 974.195,-2069.52 983.356,-2058.97"/><polygon fill="#000" stroke="#000" points="986.221 -2061.01 990.137 -2051.17 980.937 -2056.42 986.221 -2061.01"/></g><g id="node30" class="node"><title>n30</title><g id="a_node30"><a xlink:title="[...e/ubuntu/torch/install/share/lua/5.1/crnn/model/LSTM.lua]:48"><ellipse cx="551" cy="-925" fill="none" stroke="#000" rx="93.008" ry="26.741"/><text x="551" y="-928.8" font-family="Times,serif" font-size="14" text-anchor="middle">Node30</text><text x="551" y="-913.8" font-family="Times,serif" font-size="14" text-anchor="middle">module = nn.Narrow</text></a></g></g><g id="edge36" class="edge"><title>n30-&gt;n24</title><path fill="none" stroke="#000" d="M546.581,-898.073C545.189,-889.911 543.627,-880.744 542.138,-872.011"/><polygon fill="#000" stroke="#000" points="545.57 -871.315 540.44 -862.046 538.67 -872.492 545.57 -871.315"/></g><g id="node31" class="node"><title>n31</title><g id="a_node31"><a xlink:title="[...e/ubuntu/torch/install/share/lua/5.1/crnn/model/LSTM.lua]:39"><ellipse cx="786" cy="-925" fill="none" stroke="#000" rx="93.008" ry="26.741"/><text x="786" y="-928.8" font-family="Times,serif" font-size="14" text-anchor="middle">Node31</text><text x="786" y="-913.8" font-family="Times,serif" font-size="14" text-anchor="middle">module = nn.Narrow</text></a></g></g><g id="edge37" class="edge"><title>n31-&gt;n25</title><path fill="none" stroke="#000" d="M788.357,-898.073C789.099,-889.911 789.932,-880.744 790.726,-872.011"/><polygon fill="#000" stroke="#000" points="794.212 -872.322 791.632 -862.046 787.241 -871.688 794.212 -872.322"/></g><g id="node32" class="node"><title>n32</title><g id="a_node32"><a xlink:title="[[C]]:-1-mnode"><ellipse cx="534" cy="-2429" fill="none" stroke="#000" rx="80.415" ry="26.741"/><text x="534" y="-2432.8" font-family="Times,serif" font-size="14" text-anchor="middle">Node32</text><text x="534" y="-2417.8" font-family="Times,serif" font-size="14" text-anchor="middle">nSplitOutputs = 5</text></a></g></g><g id="edge38" class="edge"><title>n32-&gt;n26</title><path fill="none" stroke="#000" d="M468.105,-2413.46C414.767,-2401.46 337.799,-2383.59 271,-2366 252.552,-2361.14 232.703,-2355.54 214.306,-2350.19"/><polygon fill="#000" stroke="#000" points="215.125 -2346.78 204.544 -2347.34 213.16 -2353.5 215.125 -2346.78"/></g><g id="edge41" class="edge"><title>n32-&gt;n29</title><path fill="none" stroke="#000" d="M614.006,-2425.88C669.996,-2420.66 743.818,-2405.87 796,-2366 859.95,-2317.13 896.363,-2227.43 913.565,-2172.91"/><polygon fill="#000" stroke="#000" points="916.97 -2173.74 916.556 -2163.15 910.278 -2171.69 916.97 -2173.74"/></g><g id="node44" class="node"><title>n44</title><g id="a_node44"><a xlink:title="[[C]]:-1-3"><ellipse cx="534" cy="-2328" fill="none" stroke="#000" rx="70.566" ry="37.453"/><text x="534" y="-2339.3" font-family="Times,serif" font-size="14" text-anchor="middle">Node44</text><text x="492" y="-2324.3" font-family="Times,serif" font-size="14" text-anchor="start">input = {}</text><text x="534" y="-2309.3" font-family="Times,serif" font-size="14" text-anchor="middle">selectindex = 3</text></a></g></g><g id="edge57" class="edge"><title>n32-&gt;n44</title><path fill="none" stroke="#000" d="M534,-2401.99C534,-2393.91 534,-2384.75 534,-2375.72"/><polygon fill="#000" stroke="#000" points="537.5 -2375.63 534 -2365.63 530.5 -2375.63 537.5 -2375.63"/></g><g id="node45" class="node"><title>n45</title><g id="a_node45"><a xlink:title="[[C]]:-1-5"><ellipse cx="717" cy="-2328" fill="none" stroke="#000" rx="70.566" ry="37.453"/><text x="717" y="-2339.3" font-family="Times,serif" font-size="14" text-anchor="middle">Node45</text><text x="675" y="-2324.3" font-family="Times,serif" font-size="14" text-anchor="start">input = {}</text><text x="717" y="-2309.3" font-family="Times,serif" font-size="14" text-anchor="middle">selectindex = 5</text></a></g></g><g id="edge58" class="edge"><title>n32-&gt;n45</title><path fill="none" stroke="#000" d="M575.069,-2405.78C599.874,-2392.36 631.871,-2375.05 659.203,-2360.27"/><polygon fill="#000" stroke="#000" points="661.147 -2363.2 668.277 -2355.36 657.816 -2357.04 661.147 -2363.2"/></g><g id="node46" class="node"><title>n46</title><g id="a_node46"><a xlink:title="[[C]]:-1-1"><ellipse cx="351" cy="-2328" fill="none" stroke="#000" rx="70.566" ry="37.453"/><text x="351" y="-2339.3" font-family="Times,serif" font-size="14" text-anchor="middle">Node46</text><text x="309" y="-2324.3" font-family="Times,serif" font-size="14" text-anchor="start">input = {}</text><text x="351" y="-2309.3" font-family="Times,serif" font-size="14" text-anchor="middle">selectindex = 1</text></a></g></g><g id="edge59" class="edge"><title>n32-&gt;n46</title><path fill="none" stroke="#000" d="M492.931,-2405.78C468.126,-2392.36 436.129,-2375.05 408.797,-2360.27"/><polygon fill="#000" stroke="#000" points="410.184 -2357.04 399.723 -2355.36 406.853 -2363.2 410.184 -2357.04"/></g><g id="node33" class="node"><title>n33</title><g id="a_node33"><a xlink:title="[...e/ubuntu/torch/install/share/lua/5.1/crnn/model/LSTM.lua]:37"><ellipse cx="403" cy="-1924" fill="none" stroke="#000" rx="133.465" ry="37.453"/><text x="403" y="-1935.3" font-family="Times,serif" font-size="14" text-anchor="middle">Node33</text><text x="316.5" y="-1920.3" font-family="Times,serif" font-size="14" text-anchor="start">module = nn.CAddTable</text><text x="403" y="-1905.3" font-family="Times,serif" font-size="14" text-anchor="middle">mapindex = {Node36,Node37}</text></a></g></g><g id="edge39" class="edge"><title>n33-&gt;n27</title><path fill="none" stroke="#000" d="M349.17,-1889.48C330.279,-1877.72 309.221,-1864.61 290.94,-1853.23"/><polygon fill="#000" stroke="#000" points="292.55 -1850.11 282.211 -1847.79 288.85 -1856.05 292.55 -1850.11"/></g><g id="edge40" class="edge"><title>n33-&gt;n28</title><path fill="none" stroke="#000" d="M420.968,-1886.7C425.468,-1877.61 430.285,-1867.87 434.75,-1858.85"/><polygon fill="#000" stroke="#000" points="437.948 -1860.28 439.247 -1849.77 431.674 -1857.18 437.948 -1860.28"/></g><g id="node34" class="node"><title>n34</title><g id="a_node34"><a xlink:title="[...e/ubuntu/torch/install/share/lua/5.1/crnn/model/LSTM.lua]:37"><ellipse cx="606" cy="-1026" fill="none" stroke="#000" rx="133.465" ry="37.453"/><text x="606" y="-1037.3" font-family="Times,serif" font-size="14" text-anchor="middle">Node34</text><text x="519.5" y="-1022.3" font-family="Times,serif" font-size="14" text-anchor="start">module = nn.CAddTable</text><text x="606" y="-1007.3" font-family="Times,serif" font-size="14" text-anchor="middle">mapindex = {Node38,Node39}</text></a></g></g><g id="edge42" class="edge"><title>n34-&gt;n30</title><path fill="none" stroke="#000" d="M585.832,-988.698C580.728,-979.51 575.26,-969.667 570.204,-960.567"/><polygon fill="#000" stroke="#000" points="573.231 -958.809 565.315 -951.767 567.112 -962.208 573.231 -958.809"/></g><g id="edge43" class="edge"><title>n34-&gt;n31</title><path fill="none" stroke="#000" d="M665.438,-992.309C687.928,-979.94 713.307,-965.981 734.959,-954.073"/><polygon fill="#000" stroke="#000" points="736.915 -956.991 743.991 -949.105 733.542 -950.858 736.915 -956.991"/></g><g id="node35" class="node"><title>n35</title><g id="a_node35"><a xlink:title="[[C]]:-1"><ellipse cx="534" cy="-2519" fill="none" stroke="#000" rx="51.99" ry="26.741"/><text x="534" y="-2522.8" font-family="Times,serif" font-size="14" text-anchor="middle">Node35</text><text x="534" y="-2507.8" font-family="Times,serif" font-size="14" text-anchor="middle">input = {}</text></a></g></g><g id="edge44" class="edge"><title>n35-&gt;n32</title><path fill="none" stroke="#000" d="M534,-2492.07C534,-2484 534,-2474.94 534,-2466.3"/><polygon fill="#000" stroke="#000" points="537.5 -2466.05 534 -2456.05 530.5 -2466.05 537.5 -2466.05"/></g><g id="node36" class="node"><title>n36</title><g id="a_node36"><a xlink:title="[...e/ubuntu/torch/install/share/lua/5.1/crnn/model/LSTM.lua]:33"><ellipse cx="283" cy="-2025" fill="#ff0" stroke="#000" rx="133.465" ry="26.741"/><text x="283" y="-2028.8" font-family="Times,serif" font-size="14" text-anchor="middle">i2h[1] (36)</text><text x="283" y="-2013.8" font-family="Times,serif" font-size="14" text-anchor="middle">module = nn.Linear(65 -&gt; 512)</text></a></g></g><g id="edge45" class="edge"><title>n36-&gt;n33</title><path fill="none" stroke="#000" d="M313.592,-1998.76C325.549,-1988.9 339.577,-1977.32 352.93,-1966.31"/><polygon fill="#000" stroke="#000" points="355.207 -1968.97 360.694 -1959.9 350.753 -1963.57 355.207 -1968.97"/></g><g id="node37" class="node"><title>n37</title><g id="a_node37"><a xlink:title="[...e/ubuntu/torch/install/share/lua/5.1/crnn/model/LSTM.lua]:35"><ellipse cx="573" cy="-2025" fill="green" stroke="#000" rx="138.389" ry="26.741"/><text x="573" y="-2028.8" font-family="Times,serif" font-size="14" text-anchor="middle">h2h[1] (37)</text><text x="573" y="-2013.8" font-family="Times,serif" font-size="14" text-anchor="middle">module = nn.Linear(128 -&gt; 512)</text></a></g></g><g id="edge46" class="edge"><title>n37-&gt;n33</title><path fill="none" stroke="#000" d="M530.54,-1999.27C511.781,-1988.35 489.297,-1975.26 468.467,-1963.13"/><polygon fill="#000" stroke="#000" points="470.06 -1960 459.657 -1957.99 466.538 -1966.05 470.06 -1960"/></g><g id="edge47" class="edge"><title>n38-&gt;n34</title><path fill="none" stroke="#000" d="M571.349,-1099.99C575.347,-1091.57 579.905,-1081.97 584.373,-1072.55"/><polygon fill="#000" stroke="#000" points="587.66 -1073.79 588.787 -1063.26 581.336 -1070.79 587.66 -1073.79"/></g><g id="node39" class="node"><title>n39</title><g id="a_node39"><a xlink:title="[...e/ubuntu/torch/install/share/lua/5.1/crnn/model/LSTM.lua]:35"><ellipse cx="740" cy="-1329" fill="green" stroke="#000" rx="138.389" ry="26.741"/><text x="740" y="-1332.8" font-family="Times,serif" font-size="14" text-anchor="middle">h2h[2] (39)</text><text x="740" y="-1317.8" font-family="Times,serif" font-size="14" text-anchor="middle">module = nn.Linear(128 -&gt; 512)</text></a></g></g><g id="edge48" class="edge"><title>n39-&gt;n34</title><path fill="none" stroke="#000" d="M742.322,-1301.91C745.028,-1257.16 744.949,-1164.37 706,-1100 698.059,-1086.88 686.774,-1075.39 674.626,-1065.66"/><polygon fill="#000" stroke="#000" points="676.624 -1062.78 666.545 -1059.52 672.388 -1068.36 676.624 -1062.78"/></g><g id="node40" class="node"><title>n40</title><g id="a_node40"><a xlink:title="[...e/ubuntu/torch/install/share/lua/5.1/crnn/model/LSTM.lua]:25"><ellipse cx="305" cy="-2126" fill="none" stroke="#000" rx="82.037" ry="26.741"/><text x="305" y="-2129.8" font-family="Times,serif" font-size="14" text-anchor="middle">Node40</text><text x="305" y="-2114.8" font-family="Times,serif" font-size="14" text-anchor="middle">module = OneHot</text></a></g></g><g id="edge49" class="edge"><title>n40-&gt;n36</title><path fill="none" stroke="#000" d="M299.22,-2098.99C296.713,-2087.71 293.736,-2074.31 291.021,-2062.09"/><polygon fill="#000" stroke="#000" points="294.404 -2061.18 288.818 -2052.18 287.571 -2062.7 294.404 -2061.18"/></g><g id="node41" class="node"><title>n41</title><g id="a_node41"><a xlink:title="[...e/ubuntu/torch/install/share/lua/5.1/crnn/model/LSTM.lua]:13"><ellipse cx="534" cy="-2227" fill="#00f" stroke="#000" rx="94.068" ry="26.741"/><text x="534" y="-2230.8" font-family="Times,serif" font-size="14" text-anchor="middle">prev_c[1] (41)</text><text x="534" y="-2215.8" font-family="Times,serif" font-size="14" text-anchor="middle">module = nn.Identity</text></a></g></g><g id="edge50" class="edge"><title>n41-&gt;n37</title><path fill="none" stroke="#000" d="M539.099,-2199.85C545.96,-2164.67 558.195,-2101.92 565.939,-2062.21"/><polygon fill="#000" stroke="#000" points="569.421 -2062.64 567.9 -2052.15 562.551 -2061.3 569.421 -2062.64"/></g><g id="node42" class="node"><title>n42</title><g id="a_node42"><a xlink:title="[...e/ubuntu/torch/install/share/lua/5.1/crnn/model/LSTM.lua]:13"><ellipse cx="740" cy="-2227" fill="#00f" stroke="#000" rx="94.068" ry="26.741"/><text x="740" y="-2230.8" font-family="Times,serif" font-size="14" text-anchor="middle">prev_c[2] (42)</text><text x="740" y="-2215.8" font-family="Times,serif" font-size="14" text-anchor="middle">module = nn.Identity</text></a></g></g><g id="edge52" class="edge"><title>n42-&gt;n39</title><path fill="none" stroke="#000" d="M740,-2200.11C740,-2161.99 740,-2088.5 740,-2026 740,-2026 740,-2026 740,-1541 740,-1479.54 740,-1408.01 740,-1366"/><polygon fill="#000" stroke="#000" points="743.5 -1365.99 740 -1355.99 736.5 -1365.99 743.5 -1365.99"/></g><g id="node43" class="node"><title>n43</title><g id="a_node43"><a xlink:title="[...e/ubuntu/torch/install/share/lua/5.1/crnn/model/LSTM.lua]:8"><ellipse cx="317" cy="-2227" fill="#00f" stroke="#000" rx="94.068" ry="26.741"/><text x="317" y="-2230.8" font-family="Times,serif" font-size="14" text-anchor="middle">x (43)</text><text x="317" y="-2215.8" font-family="Times,serif" font-size="14" text-anchor="middle">module = nn.Identity</text></a></g></g><g id="edge53" class="edge"><title>n43-&gt;n40</title><path fill="none" stroke="#000" d="M313.847,-2199.99C312.494,-2188.82 310.889,-2175.58 309.42,-2163.46"/><polygon fill="#000" stroke="#000" points="312.851 -2162.69 308.173 -2153.18 305.902 -2163.53 312.851 -2162.69"/></g><g id="edge54" class="edge"><title>n44-&gt;n41</title><path fill="none" stroke="#000" d="M534,-2290.42C534,-2281.8 534,-2272.63 534,-2264.04"/><polygon fill="#000" stroke="#000" points="537.5 -2263.92 534 -2253.92 530.5 -2263.92 537.5 -2263.92"/></g><g id="edge55" class="edge"><title>n45-&gt;n42</title><path fill="none" stroke="#000" d="M725.434,-2290.7C727.461,-2281.97 729.625,-2272.66 731.649,-2263.95"/><polygon fill="#000" stroke="#000" points="735.089 -2264.6 733.943 -2254.07 728.271 -2263.02 735.089 -2264.6"/></g><g id="edge56" class="edge"><title>n46-&gt;n43</title><path fill="none" stroke="#000" d="M338.629,-2290.98C335.566,-2282.06 332.287,-2272.51 329.231,-2263.61"/><polygon fill="#000" stroke="#000" points="332.458 -2262.23 325.899 -2253.91 325.837 -2264.51 332.458 -2262.23"/></g></g></svg>