<svg xmlns="http://www.w3.org/2000/svg" xmlns:xlink="http://www.w3.org/1999/xlink" width="352" height="355pt" viewBox="0 0 264 355"><g id="graph0" class="graph" transform="scale(1 1) rotate(0) translate(4 351)"><title>G</title><polygon fill="#fff" stroke="none" points="-4 4 -4 -351 260 -351 260 4 -4 4"/><text x="128" y="-331.8" font-family="Times,serif" font-size="14" text-anchor="middle">kk</text><g id="node1" class="node"><title>n1</title><g id="a_node1"><a xlink:title="[stdin]:5"><ellipse cx="128" cy="-117" fill="none" stroke="#000" rx="128.54" ry="26.741"/><text x="128" y="-120.8" font-family="Times,serif" font-size="14" text-anchor="middle">linear_module (1)</text><text x="128" y="-105.8" font-family="Times,serif" font-size="14" text-anchor="middle">module = nn.Linear(10 -&gt; 10)</text></a></g></g><g id="node2" class="node"><title>n2</title><g id="a_node2"><a xlink:title="[[C]]:-1"><ellipse cx="128" cy="-27" fill="none" stroke="#000" rx="51.99" ry="26.741"/><text x="128" y="-30.8" font-family="Times,serif" font-size="14" text-anchor="middle">Node2</text><text x="128" y="-15.8" font-family="Times,serif" font-size="14" text-anchor="middle">input = {}</text></a></g></g><g id="edge1" class="edge"><title>n1-&gt;n2</title><path fill="none" stroke="#000" d="M128,-90.0731C128,-81.9993 128,-72.9428 128,-64.2961"/><polygon fill="#000" stroke="#000" points="131.5 -64.046 128 -54.046 124.5 -64.046 131.5 -64.046"/></g><g id="node3" class="node"><title>n3</title><g id="a_node3"><a xlink:title="[stdin]:4"><ellipse cx="128" cy="-207" fill="none" stroke="#000" rx="94.068" ry="26.741"/><text x="128" y="-210.8" font-family="Times,serif" font-size="14" text-anchor="middle">input_x (3)</text><text x="128" y="-195.8" font-family="Times,serif" font-size="14" text-anchor="middle">module = nn.Identity</text></a></g></g><g id="edge2" class="edge"><title>n3-&gt;n1</title><path fill="none" stroke="#000" d="M128,-180.073C128,-171.999 128,-162.943 128,-154.296"/><polygon fill="#000" stroke="#000" points="131.5 -154.046 128 -144.046 124.5 -154.046 131.5 -154.046"/></g><g id="node4" class="node"><title>n4</title><g id="a_node4"><a xlink:title="[[C]]:-1"><ellipse cx="128" cy="-297" fill="none" stroke="#000" rx="51.99" ry="26.741"/><text x="128" y="-300.8" font-family="Times,serif" font-size="14" text-anchor="middle">Node4</text><text x="128" y="-285.8" font-family="Times,serif" font-size="14" text-anchor="middle">input = {}</text></a></g></g><g id="edge3" class="edge"><title>n4-&gt;n3</title><path fill="none" stroke="#000" d="M128,-270.073C128,-261.999 128,-252.943 128,-244.296"/><polygon fill="#000" stroke="#000" points="131.5 -244.046 128 -234.046 124.5 -244.046 131.5 -244.046"/></g></g></svg>