<svg xmlns="http://www.w3.org/2000/svg" xmlns:xlink="http://www.w3.org/1999/xlink" width="352" height="996" viewBox="0 0 264 747"><g id="graph0" class="graph" transform="scale(1 1) rotate(0) translate(4 743)"><title>G</title><polygon fill="#fff" stroke="none" points="-4 4 -4 -743 260 -743 260 4 -4 4"/><text x="128" y="-723.8" font-family="Times,serif" font-size="14" text-anchor="middle">MLP</text><g id="node1" class="node"><title>n1</title><g id="a_node1"><a xlink:title="[[string &quot;-- it is common style to mark inputs with ide...&quot;]]:7"><ellipse cx="128" cy="-160" fill="none" stroke="#000" rx="124.176" ry="48.167"/><text x="128" y="-178.8" font-family="Times,serif" font-size="14" text-anchor="middle">Node1</text><text x="48" y="-163.8" font-family="Times,serif" font-size="14" text-anchor="start">input = {Tensor[10]}</text><text x="48" y="-148.8" font-family="Times,serif" font-size="14" text-anchor="start">module = nn.Linear(10 -&gt; 1)</text><text x="128" y="-133.8" font-family="Times,serif" font-size="14" text-anchor="middle">gradOutput = {Tensor[1]}</text></a></g></g><g id="node2" class="node"><title>n2</title><g id="a_node2"><a xlink:title="[[C]]:-1"><ellipse cx="128" cy="-38" fill="none" stroke="#000" rx="113.267" ry="37.453"/><text x="128" y="-49.3" font-family="Times,serif" font-size="14" text-anchor="middle">Node2</text><text x="55.5" y="-34.3" font-family="Times,serif" font-size="14" text-anchor="start">input = {Tensor[1]}</text><text x="128" y="-19.3" font-family="Times,serif" font-size="14" text-anchor="middle">gradOutput = {Tensor[1]}</text></a></g></g><g id="edge1" class="edge"><title>n1-&gt;n2</title><path fill="none" stroke="#000" d="M128,-111.573C128,-103.096 128,-94.269 128,-85.8099"/><polygon fill="#000" stroke="#000" points="131.5 -85.722 128 -75.722 124.5 -85.722 131.5 -85.722"/></g><g id="node3" class="node"><title>n3</title><g id="a_node3"><a xlink:title="[[string &quot;-- it is common style to mark inputs with ide...&quot;]]:6"><ellipse cx="128" cy="-292" fill="none" stroke="#000" rx="118.13" ry="48.167"/><text x="128" y="-310.8" font-family="Times,serif" font-size="14" text-anchor="middle">Node3</text><text x="52.5" y="-295.8" font-family="Times,serif" font-size="14" text-anchor="start">input = {Tensor[10]}</text><text x="52.5" y="-280.8" font-family="Times,serif" font-size="14" text-anchor="start">module = nn.Tanh</text><text x="128" y="-265.8" font-family="Times,serif" font-size="14" text-anchor="middle">gradOutput = {Tensor[10]}</text></a></g></g><g id="edge2" class="edge"><title>n3-&gt;n1</title><path fill="none" stroke="#000" d="M128,-243.699C128,-235.544 128,-226.987 128,-218.597"/><polygon fill="#000" stroke="#000" points="131.5 -218.483 128 -208.483 124.5 -218.483 131.5 -218.483"/></g><g id="node4" class="node"><title>n4</title><g id="a_node4"><a xlink:title="[[string &quot;-- it is common style to mark inputs with ide...&quot;]]:6"><ellipse cx="128" cy="-424" fill="none" stroke="#000" rx="128.54" ry="48.167"/><text x="128" y="-442.8" font-family="Times,serif" font-size="14" text-anchor="middle">Node4</text><text x="45" y="-427.8" font-family="Times,serif" font-size="14" text-anchor="start">input = {Tensor[20]}</text><text x="45" y="-412.8" font-family="Times,serif" font-size="14" text-anchor="start">module = nn.Linear(20 -&gt; 10)</text><text x="128" y="-397.8" font-family="Times,serif" font-size="14" text-anchor="middle">gradOutput = {Tensor[10]}</text></a></g></g><g id="edge3" class="edge"><title>n4-&gt;n3</title><path fill="none" stroke="#000" d="M128,-375.699C128,-367.544 128,-358.987 128,-350.597"/><polygon fill="#000" stroke="#000" points="131.5 -350.483 128 -340.483 124.5 -350.483 131.5 -350.483"/></g><g id="node5" class="node"><title>n5</title><g id="a_node5"><a xlink:title="[[string &quot;-- it is common style to mark inputs with ide...&quot;]]:2"><ellipse cx="128" cy="-556" fill="none" stroke="#000" rx="118.13" ry="48.167"/><text x="128" y="-574.8" font-family="Times,serif" font-size="14" text-anchor="middle">Node5</text><text x="52.5" y="-559.8" font-family="Times,serif" font-size="14" text-anchor="start">input = {Tensor[20]}</text><text x="52.5" y="-544.8" font-family="Times,serif" font-size="14" text-anchor="start">module = nn.Identity</text><text x="128" y="-529.8" font-family="Times,serif" font-size="14" text-anchor="middle">gradOutput = {Tensor[20]}</text></a></g></g><g id="edge4" class="edge"><title>n5-&gt;n4</title><path fill="none" stroke="#000" d="M128,-507.699C128,-499.544 128,-490.987 128,-482.597"/><polygon fill="#000" stroke="#000" points="131.5 -482.483 128 -472.483 124.5 -482.483 131.5 -482.483"/></g><g id="node6" class="node"><title>n6</title><g id="a_node6"><a xlink:title="[[C]]:-1"><ellipse cx="128" cy="-678" fill="none" stroke="#000" rx="118.13" ry="37.453"/><text x="128" y="-689.3" font-family="Times,serif" font-size="14" text-anchor="middle">Node6</text><text x="52.5" y="-674.3" font-family="Times,serif" font-size="14" text-anchor="start">input = {Tensor[20]}</text><text x="128" y="-659.3" font-family="Times,serif" font-size="14" text-anchor="middle">gradOutput = {Tensor[20]}</text></a></g></g><g id="edge5" class="edge"><title>n6-&gt;n5</title><path fill="none" stroke="#000" d="M128,-640.344C128,-632.219 128,-623.418 128,-614.683"/><polygon fill="#000" stroke="#000" points="131.5 -614.503 128 -604.503 124.5 -614.503 131.5 -614.503"/></g></g></svg>