<svg xmlns="http://www.w3.org/2000/svg" xmlns:xlink="http://www.w3.org/1999/xlink" width="352" height="772" viewBox="0 0 264 579"><g id="graph0" class="graph" transform="scale(1 1) rotate(0) translate(4 575)"><title>G</title><polygon fill="#fff" stroke="none" points="-4 4 -4 -575 260 -575 260 4 -4 4"/><text x="128" y="-555.8" font-family="Times,serif" font-size="14" text-anchor="middle">MyMLPError</text><g id="node1" class="node"><title>n1</title><g id="a_node1"><a xlink:title="[[string &quot;-- We need to set debug flag to true...&quot;]]:12"><ellipse cx="128" cy="-117" fill="none" stroke="#000" rx="124.176" ry="26.741"/><text x="128" y="-120.8" font-family="Times,serif" font-size="14" text-anchor="middle">output (1)</text><text x="128" y="-105.8" font-family="Times,serif" font-size="14" text-anchor="middle">module = nn.Linear(10 -&gt; 1)</text></a></g></g><g id="node2" class="node"><title>n2</title><g id="a_node2"><a xlink:title="[[C]]:-1"><ellipse cx="128" cy="-27" fill="none" stroke="#000" rx="51.99" ry="26.741"/><text x="128" y="-30.8" font-family="Times,serif" font-size="14" text-anchor="middle">Node2</text><text x="128" y="-15.8" font-family="Times,serif" font-size="14" text-anchor="middle">input = {}</text></a></g></g><g id="edge1" class="edge"><title>n1-&gt;n2</title><path fill="none" stroke="#000" d="M128,-90.0731C128,-81.9993 128,-72.9428 128,-64.2961"/><polygon fill="#000" stroke="#000" points="131.5 -64.046 128 -54.046 124.5 -64.046 131.5 -64.046"/></g><g id="node3" class="node"><title>n3</title><g id="a_node3"><a xlink:title="[[string &quot;-- We need to set debug flag to true...&quot;]]:11"><ellipse cx="128" cy="-207" fill="none" stroke="#000" rx="96.311" ry="26.741"/><text x="128" y="-210.8" font-family="Times,serif" font-size="14" text-anchor="middle">h2 (3)</text><text x="128" y="-195.8" font-family="Times,serif" font-size="14" text-anchor="middle">module = nn.Sigmoid</text></a></g></g><g id="edge2" class="edge"><title>n3-&gt;n1</title><path fill="none" stroke="#000" d="M128,-180.073C128,-171.999 128,-162.943 128,-154.296"/><polygon fill="#000" stroke="#000" points="131.5 -154.046 128 -144.046 124.5 -154.046 131.5 -154.046"/></g><g id="node4" class="node"><title>n4</title><g id="a_node4"><a xlink:title="[[string &quot;-- We need to set debug flag to true...&quot;]]:10"><ellipse cx="128" cy="-308" fill="red" stroke="#000" rx="128.54" ry="37.453"/><text x="128" y="-319.3" font-family="Times,serif" font-size="14" text-anchor="middle">h1 (4)</text><text x="45" y="-304.3" font-family="Times,serif" font-size="14" text-anchor="start">input = {Tensor[15]}</text><text x="128" y="-289.3" font-family="Times,serif" font-size="14" text-anchor="middle">module = nn.Linear(20 -&gt; 10)</text></a></g></g><g id="edge3" class="edge"><title>n4-&gt;n3</title><path fill="none" stroke="#000" d="M128,-270.417C128,-261.802 128,-252.626 128,-244.035"/><polygon fill="#000" stroke="#000" points="131.5 -243.924 128 -233.924 124.5 -243.924 131.5 -243.924"/></g><g id="node5" class="node"><title>n5</title><g id="a_node5"><a xlink:title="[[string &quot;-- We need to set debug flag to true...&quot;]]:6"><ellipse cx="128" cy="-420" fill="none" stroke="#000" rx="94.13" ry="37.453"/><text x="128" y="-431.3" font-family="Times,serif" font-size="14" text-anchor="middle">input (5)</text><text x="69" y="-416.3" font-family="Times,serif" font-size="14" text-anchor="start">input = {Tensor[15]}</text><text x="128" y="-401.3" font-family="Times,serif" font-size="14" text-anchor="middle">module = nn.Identity</text></a></g></g><g id="edge4" class="edge"><title>n5-&gt;n4</title><path fill="none" stroke="#000" d="M128,-382.372C128,-373.927 128,-364.829 128,-356.011"/><polygon fill="#000" stroke="#000" points="131.5 -355.843 128 -345.844 124.5 -355.844 131.5 -355.843"/></g><g id="node6" class="node"><title>n6</title><g id="a_node6"><a xlink:title="[[C]]:-1"><ellipse cx="128" cy="-521" fill="none" stroke="#000" rx="94.13" ry="26.741"/><text x="128" y="-524.8" font-family="Times,serif" font-size="14" text-anchor="middle">Node6</text><text x="128" y="-509.8" font-family="Times,serif" font-size="14" text-anchor="middle">input = {Tensor[15]}</text></a></g></g><g id="edge5" class="edge"><title>n6-&gt;n5</title><path fill="none" stroke="#000" d="M128,-493.989C128,-485.914 128,-476.753 128,-467.716"/><polygon fill="#000" stroke="#000" points="131.5 -467.631 128 -457.631 124.5 -467.631 131.5 -467.631"/></g></g></svg>