<svg xmlns="http://www.w3.org/2000/svg" xmlns:xlink="http://www.w3.org/1999/xlink" width="780" height="713pt" viewBox="0 0 585 713"><g id="graph0" class="graph" transform="scale(1 1) rotate(0) translate(4 709)"><title>G</title><polygon fill="#fff" stroke="none" points="-4 4 -4 -709 581 -709 581 4 -4 4"/><text x="288.5" y="-689.8" font-family="Times,serif" font-size="14" text-anchor="middle">rnn_net2</text><g id="node1" class="node"><title>n1</title><g id="a_node1"><a xlink:title="[[string &quot;local function get_rnn2(input_size, rnn_size)...&quot;]]:6"><ellipse cx="212" cy="-128" fill="none" stroke="#000" rx="124.176" ry="37.453"/><text x="212" y="-139.3" font-family="Times,serif" font-size="14" text-anchor="middle">rnn_net2 (1)</text><text x="132" y="-124.3" font-family="Times,serif" font-size="14" text-anchor="start">module = nn.gModule</text><text x="212" y="-109.3" font-family="Times,serif" font-size="14" text-anchor="middle">mapindex = {Node3,Node4}</text></a></g></g><g id="node2" class="node"><title>n2</title><g id="a_node2"><a xlink:title="[[C]]:-1"><ellipse cx="212" cy="-27" fill="none" stroke="#000" rx="51.99" ry="26.741"/><text x="212" y="-30.8" font-family="Times,serif" font-size="14" text-anchor="middle">Node2</text><text x="212" y="-15.8" font-family="Times,serif" font-size="14" text-anchor="middle">input = {}</text></a></g></g><g id="edge1" class="edge"><title>n1-&gt;n2</title><path fill="none" stroke="#000" d="M212,-90.4173C212,-81.8023 212,-72.6261 212,-64.0354"/><polygon fill="#000" stroke="#000" points="215.5 -63.924 212 -53.924 208.5 -63.924 215.5 -63.924"/></g><g id="node3" class="node"><title>n3</title><g id="a_node3"><a xlink:title="[[string &quot;local function get_rnn2(input_size, rnn_size)...&quot;]]:3"><ellipse cx="94" cy="-240" fill="none" stroke="#000" rx="94.068" ry="26.741"/><text x="94" y="-243.8" font-family="Times,serif" font-size="14" text-anchor="middle">input2 (3)</text><text x="94" y="-228.8" font-family="Times,serif" font-size="14" text-anchor="middle">module = nn.Identity</text></a></g></g><g id="edge2" class="edge"><title>n3-&gt;n1</title><path fill="none" stroke="#000" d="M120.776,-214.039C134.45,-201.292 151.455,-185.44 167.065,-170.888"/><polygon fill="#000" stroke="#000" points="169.668 -173.247 174.596 -163.868 164.894 -168.127 169.668 -173.247"/></g><g id="node4" class="node"><title>n4</title><g id="a_node4"><a xlink:title="[[string &quot;local function get_rnn2(input_size, rnn_size)...&quot;]]:5"><ellipse cx="330" cy="-240" fill="none" stroke="#000" rx="124.176" ry="37.453"/><text x="330" y="-251.3" font-family="Times,serif" font-size="14" text-anchor="middle">rnn_net1 (4)</text><text x="250" y="-236.3" font-family="Times,serif" font-size="14" text-anchor="start">module = nn.gModule</text><text x="330" y="-221.3" font-family="Times,serif" font-size="14" text-anchor="middle">mapindex = {Node6,Node7}</text></a></g></g><g id="edge3" class="edge"><title>n4-&gt;n1</title><path fill="none" stroke="#000" d="M292.664,-204.195C281.365,-193.662 268.835,-181.982 257.086,-171.029"/><polygon fill="#000" stroke="#000" points="259.199 -168.214 249.498 -163.956 254.426 -173.335 259.199 -168.214"/></g><g id="node5" class="node"><title>n5</title><g id="a_node5"><a xlink:title="[[C]]:-1-2"><ellipse cx="94" cy="-352" fill="none" stroke="#000" rx="70.566" ry="37.453"/><text x="94" y="-363.3" font-family="Times,serif" font-size="14" text-anchor="middle">Node5</text><text x="52" y="-348.3" font-family="Times,serif" font-size="14" text-anchor="start">input = {}</text><text x="94" y="-333.3" font-family="Times,serif" font-size="14" text-anchor="middle">selectindex = 2</text></a></g></g><g id="edge4" class="edge"><title>n5-&gt;n3</title><path fill="none" stroke="#000" d="M94,-314.372C94,-302.384 94,-289.08 94,-277.129"/><polygon fill="#000" stroke="#000" points="97.5 -277.042 94 -267.042 90.5 -277.042 97.5 -277.042"/></g><g id="node6" class="node"><title>n6</title><g id="a_node6"><a xlink:title="[[string &quot;local function get_rnn2(input_size, rnn_size)...&quot;]]:2"><ellipse cx="277" cy="-352" fill="none" stroke="#000" rx="94.068" ry="26.741"/><text x="277" y="-355.8" font-family="Times,serif" font-size="14" text-anchor="middle">input1 (6)</text><text x="277" y="-340.8" font-family="Times,serif" font-size="14" text-anchor="middle">module = nn.Identity</text></a></g></g><g id="edge5" class="edge"><title>n6-&gt;n4</title><path fill="none" stroke="#000" d="M289.426,-325.21C294.941,-313.764 301.602,-299.94 307.918,-286.831"/><polygon fill="#000" stroke="#000" points="311.247 -287.985 312.435 -277.457 304.941 -284.946 311.247 -287.985"/></g><g id="node7" class="node"><title>n7</title><g id="a_node7"><a xlink:title="[[string &quot;local function get_rnn2(input_size, rnn_size)...&quot;]]:4"><ellipse cx="483" cy="-352" fill="none" stroke="#000" rx="94.068" ry="26.741"/><text x="483" y="-355.8" font-family="Times,serif" font-size="14" text-anchor="middle">prev_h (7)</text><text x="483" y="-340.8" font-family="Times,serif" font-size="14" text-anchor="middle">module = nn.Identity</text></a></g></g><g id="edge6" class="edge"><title>n7-&gt;n4</title><path fill="none" stroke="#000" d="M449.424,-326.86C430.708,-313.405 406.925,-296.306 385.518,-280.915"/><polygon fill="#000" stroke="#000" points="387.299 -277.885 377.136 -274.889 383.213 -283.568 387.299 -277.885"/></g><g id="node8" class="node"><title>n8</title><g id="a_node8"><a xlink:title="[[C]]:-1-mnode"><ellipse cx="277" cy="-565" fill="none" stroke="#000" rx="80.415" ry="26.741"/><text x="277" y="-568.8" font-family="Times,serif" font-size="14" text-anchor="middle">Node8</text><text x="277" y="-553.8" font-family="Times,serif" font-size="14" text-anchor="middle">nSplitOutputs = 3</text></a></g></g><g id="edge7" class="edge"><title>n8-&gt;n5</title><path fill="none" stroke="#000" d="M241.986,-540.491C227.233,-529.699 210.411,-516.162 197,-502 166.594,-469.891 138.514,-428.1 119.379,-396.951"/><polygon fill="#000" stroke="#000" points="122.162 -394.79 113.981 -388.058 116.178 -398.422 122.162 -394.79"/></g><g id="node9" class="node"><title>n9</title><g id="a_node9"><a xlink:title="[[C]]:-1-1"><ellipse cx="277" cy="-464" fill="none" stroke="#000" rx="70.566" ry="37.453"/><text x="277" y="-475.3" font-family="Times,serif" font-size="14" text-anchor="middle">Node9</text><text x="235" y="-460.3" font-family="Times,serif" font-size="14" text-anchor="start">input = {}</text><text x="277" y="-445.3" font-family="Times,serif" font-size="14" text-anchor="middle">selectindex = 1</text></a></g></g><g id="edge11" class="edge"><title>n8-&gt;n9</title><path fill="none" stroke="#000" d="M277,-537.989C277,-529.914 277,-520.753 277,-511.716"/><polygon fill="#000" stroke="#000" points="280.5 -511.631 277 -501.631 273.5 -511.631 280.5 -511.631"/></g><g id="node10" class="node"><title>n10</title><g id="a_node10"><a xlink:title="[[C]]:-1-3"><ellipse cx="459" cy="-464" fill="none" stroke="#000" rx="70.566" ry="37.453"/><text x="459" y="-475.3" font-family="Times,serif" font-size="14" text-anchor="middle">Node10</text><text x="417" y="-460.3" font-family="Times,serif" font-size="14" text-anchor="start">input = {}</text><text x="459" y="-445.3" font-family="Times,serif" font-size="14" text-anchor="middle">selectindex = 3</text></a></g></g><g id="edge12" class="edge"><title>n8-&gt;n10</title><path fill="none" stroke="#000" d="M317.844,-541.782C342.514,-528.363 374.336,-511.053 401.519,-496.267"/><polygon fill="#000" stroke="#000" points="403.431 -499.212 410.543 -491.359 400.086 -493.062 403.431 -499.212"/></g><g id="edge8" class="edge"><title>n9-&gt;n6</title><path fill="none" stroke="#000" d="M277,-426.372C277,-414.384 277,-401.08 277,-389.129"/><polygon fill="#000" stroke="#000" points="280.5 -389.042 277 -379.042 273.5 -389.042 280.5 -389.042"/></g><g id="edge9" class="edge"><title>n10-&gt;n7</title><path fill="none" stroke="#000" d="M466.925,-426.677C469.592,-414.455 472.563,-400.836 475.219,-388.664"/><polygon fill="#000" stroke="#000" points="478.649 -389.36 477.361 -378.843 471.81 -387.867 478.649 -389.36"/></g><g id="node11" class="node"><title>n11</title><g id="a_node11"><a xlink:title="[[C]]:-1"><ellipse cx="277" cy="-655" fill="none" stroke="#000" rx="51.99" ry="26.741"/><text x="277" y="-658.8" font-family="Times,serif" font-size="14" text-anchor="middle">Node11</text><text x="277" y="-643.8" font-family="Times,serif" font-size="14" text-anchor="middle">input = {}</text></a></g></g><g id="edge10" class="edge"><title>n11-&gt;n8</title><path fill="none" stroke="#000" d="M277,-628.073C277,-619.999 277,-610.943 277,-602.296"/><polygon fill="#000" stroke="#000" points="280.5 -602.046 277 -592.046 273.5 -602.046 280.5 -602.046"/></g></g></svg>